<?xml version="1.0" standalone="no"?>
<!DOCTYPE svg PUBLIC "-//W3C//DTD SVG 1.1//EN" "http://www.w3.org/Graphics/SVG/1.1/DTD/svg11.dtd" >
<svg xmlns="http://www.w3.org/2000/svg">
<metadata>Generated by IcoMoon</metadata>
<defs>
<font id="icons" horiz-adv-x="512">
<font-face units-per-em="512" ascent="480" descent="-32" />
<missing-glyph horiz-adv-x="512" />
<glyph unicode="&#x20;" d="" horiz-adv-x="256" />
<glyph unicode="&#x41;" d="M8.704 70.4q-5.632 0-8.192 4.096t-0.512 9.216l159.232 344.576q2.56 5.632 8.704 5.632h5.12q4.096 0 5.632-1.536t3.072-4.096l157.696-344.576q2.56-5.12 0-9.216t-8.704-4.096h-44.544q-5.632 0-8.704 2.048t-6.144 8.192l-25.088 55.296h-153.088l-25.088-55.296q-1.536-4.096-5.12-7.168t-9.728-3.072h-44.544zM221.184 192.768l-51.2 112.64h-1.536l-50.176-112.64h102.912z" />
<glyph unicode="&#x42;" d="M46.592 419.072q0 4.096 2.56 6.656t7.168 3.072h117.248q23.040 0 42.496-7.168t34.304-19.968 23.040-30.208 8.192-37.376q0-14.848-5.12-27.648t-13.824-23.552-18.432-18.432-18.944-11.776q10.24-3.072 21.504-9.728t21.504-17.408 16.896-24.576 6.656-31.744q0-21.504-8.704-39.424t-23.552-31.232-35.328-20.48-44.032-7.68h-123.904q-4.096 0-6.656 2.56t-3.072 7.168v338.944zM167.424 278.272q19.456 0 31.744 13.312t12.288 32.768-12.288 31.232-31.744 12.288h-54.784v-89.6h54.784zM174.592 130.816q19.456 0 32.768 13.312t13.312 33.28q0 9.728-4.096 17.92t-11.776 13.824-16.896 9.216-19.456 3.584h-55.808v-91.136h61.952z" horiz-adv-x="316" />
<glyph unicode="&#x43;" d="M20.48 249.088q0 38.4 14.336 72.192t39.424 58.368 58.88 39.424 72.192 14.848q38.912 0 68.096-11.776t55.808-35.84q7.68-7.168 0.512-14.336l-31.232-32.256q-6.144-6.656-12.8 0-16.384 14.336-36.864 22.016t-41.984 8.192q-24.576 0-45.568-9.216t-35.84-26.112-24.064-37.888-8.704-46.080q0-24.064 8.704-45.568t24.064-37.376 36.352-25.6 45.568-9.728q23.040 0 42.496 7.68t35.84 21.504q3.072 2.56 6.656 2.56t6.144-2.56l31.744-32.768q3.072-2.56 2.56-6.656t-3.072-7.168q-26.112-25.6-57.856-37.376t-66.56-12.288q-38.4 0-72.192 14.336t-58.368 38.912-39.424 58.368-14.848 72.192z" horiz-adv-x="350" />
<glyph unicode="&#x44;" d="M46.592 419.072q0 4.096 2.56 6.656t6.656 3.072h121.344q36.864 0 69.632-13.824t57.344-38.4 38.4-56.832 14.336-69.632q0-37.376-13.824-70.144t-38.912-56.832-57.344-38.4-69.632-14.336h-121.344q-4.096 0-6.656 2.56t-2.56 7.168v338.944zM171.008 132.864q25.088 0 46.080 8.704t36.352 24.576 24.064 37.376 8.704 46.592-8.704 46.080-24.064 36.864-36.352 24.576-46.080 9.216h-58.368v-233.984h58.368z" horiz-adv-x="378" />
<glyph unicode="&#x45;" d="M46.592 419.072q0 4.096 2.56 6.656t7.168 3.072h208.384q4.096 0 6.656-2.56t3.072-7.168v-41.984q0-4.096-2.56-6.656t-7.168-3.072h-151.552v-83.968h126.464q4.096 0 6.656-2.56t3.072-7.168v-42.496q0-4.096-2.56-6.656t-7.168-3.072h-126.464v-89.6h151.552q4.096 0 6.656-2.56t3.072-7.168v-41.984q0-4.096-2.56-6.656t-7.168-3.072h-208.384q-4.096 0-6.656 2.56t-3.072 7.168v338.944z" horiz-adv-x="301" />
<glyph unicode="&#x46;" d="M46.592 419.072q0 4.096 2.56 6.656t7.168 3.072h208.384q4.096 0 6.656-2.56t3.072-7.168v-41.984q0-4.096-2.56-6.656t-7.168-3.072h-151.552v-96.256h126.464q4.096 0 6.656-2.56t3.072-7.168v-41.984q0-4.096-2.56-6.656t-7.168-3.072h-126.464v-129.536q0-4.096-2.56-6.656t-7.168-3.072h-47.104q-4.096 0-6.656 2.56t-3.072 7.168v338.944z" horiz-adv-x="289" />
<glyph unicode="&#x47;" d="M20.992 249.088q0 38.4 14.336 72.192t39.424 58.368 58.368 39.424 71.68 14.848q34.816 0 66.56-12.288t58.368-35.328q3.072-3.072 3.072-7.168t-2.56-7.168l-31.744-33.28q-6.144-6.144-13.312 0-33.792 29.696-77.312 29.696-24.064 0-45.056-9.216t-36.352-26.112-24.064-37.888-9.216-45.568q0-24.064 8.704-45.056t24.576-37.376 36.864-25.088 45.056-9.728q21.504 0 37.376 4.608t23.552 8.192v43.52h-40.96q-4.096 0-6.656 2.56t-3.072 6.656v40.448q0 9.728 9.728 9.728h98.304q4.096 0 6.656-2.56t2.56-7.168v-131.072q0-5.12-4.096-8.192-15.872-9.728-35.84-16.896-16.896-6.144-39.936-11.264t-51.2-5.12q-38.4 0-71.68 14.336t-58.368 38.912-39.424 57.856-14.336 72.192z" horiz-adv-x="365" />
<glyph unicode="&#x48;" d="M46.592 419.072q0 4.096 2.56 6.656t7.168 3.072h47.616q4.096 0 6.656-2.56t3.072-7.168v-135.68h166.912v135.68q0 4.096 2.56 6.656t7.168 3.072h47.104q4.096 0 6.656-2.56t3.072-7.168v-338.944q0-4.096-2.56-6.656t-7.168-3.072h-47.104q-4.096 0-6.656 2.56t-3.072 7.168v141.312h-166.912v-141.312q0-4.096-2.56-6.656t-7.168-3.072h-47.616q-4.096 0-6.656 2.56t-3.072 7.168v338.944z" horiz-adv-x="394" />
<glyph unicode="&#x49;" d="M46.592 419.072q0 4.096 2.56 6.656t7.168 3.072h47.616q4.096 0 6.656-2.56t3.072-7.168v-338.944q0-4.096-2.56-6.656t-7.168-3.072h-47.616q-4.096 0-6.656 2.56t-3.072 7.168v338.944z" horiz-adv-x="161" />
<glyph unicode="&#x4a;" d="M-8.192 102.656q-4.096 6.656 1.024 12.8l26.624 27.136q7.68 7.168 15.36-0.512 5.12-5.632 12.8-10.752t20.992-5.632q7.68 0 14.848 3.072t12.8 9.216 9.728 16.384 3.584 23.040v241.664q0 4.096 2.56 6.656t7.168 3.072h48.128q4.096 0 6.656-2.56t3.072-7.168v-241.664q0-26.624-8.192-47.616t-23.040-35.328-34.304-21.504-41.984-7.68q-16.896 0-29.696 4.096t-22.528 10.24-15.872 12.288-9.728 10.752z" horiz-adv-x="214" />
<glyph unicode="&#x4b;" d="M46.592 416.512q0 5.12 3.072 8.704t9.216 3.584h45.056q5.12 0 8.704-3.584t3.584-8.704v-138.24l129.024 145.408q1.536 2.048 3.584 3.584t6.144 1.536h51.2q7.168 0 10.24-6.144t-2.048-12.288l-133.632-150.528 143.36-171.52q4.096-5.12 1.536-11.264t-10.752-6.656h-55.808q-4.096 0-6.144 1.024t-3.072 2.56l-133.632 164.864v-156.16q0-5.12-3.584-8.704t-8.704-3.584h-45.056q-5.632 0-8.704 3.584t-3.584 8.704v333.824z" horiz-adv-x="336" />
<glyph unicode="&#x4c;" d="M46.592 419.072q0 4.096 2.56 6.656t7.168 3.072h47.104q4.096 0 6.656-2.56t3.072-7.168v-287.232h130.56q4.096 0 6.656-2.56t3.072-7.168v-41.984q0-4.096-2.56-6.656t-7.168-3.072h-187.392q-4.096 0-6.656 2.56t-3.072 7.168v338.944z" horiz-adv-x="259" />
<glyph unicode="&#x4d;" d="M83.968 426.24q0.512 3.072 2.56 5.12t6.656 2.56h8.192q6.144 0 8.704-5.12l112.64-241.664h1.536l112.64 241.664q2.56 5.12 8.704 5.12h8.192q4.096 0 6.144-2.048t3.072-5.632l60.416-344.064q1.024-5.632-1.536-8.704t-7.68-3.072h-46.592q-3.584 0-6.144 2.56t-3.584 5.12l-30.208 194.048h-1.536l-89.6-201.216q-2.048-5.632-8.704-5.632h-9.216q-6.144 0-8.704 5.632l-90.624 201.216h-1.536l-29.696-194.048q-0.512-2.56-3.072-5.12t-6.144-2.56h-46.080q-11.264 0-9.728 11.776z" horiz-adv-x="447" />
<glyph unicode="&#x4e;" d="M46.592 424.704q0 4.096 2.56 6.656t7.168 2.56h12.8l212.992-226.304h0.512v211.456q0 4.096 2.56 6.656t7.168 3.072h47.104q4.096 0 6.656-2.56t3.072-7.168v-344.576q0-4.096-2.56-6.656t-7.168-2.56h-12.288l-214.016 235.008h-0.512v-220.16q0-4.096-2.56-6.656t-7.168-3.072h-46.592q-4.096 0-6.656 2.56t-3.072 7.168v344.576z" horiz-adv-x="396" />
<glyph unicode="&#x4f;" d="M20.992 249.088q0 38.4 14.336 72.192t38.912 58.368 58.368 39.424 72.192 14.848 71.68-14.336 58.88-39.424 39.424-58.88 14.336-72.192q0-38.4-14.336-71.68t-39.424-58.368-58.368-39.424-72.192-14.336q-38.4 0-71.68 14.336t-58.368 38.912-39.424 58.368-14.336 72.192zM87.552 249.088q0-24.064 9.216-45.568t25.088-37.376 37.376-25.088 45.568-9.216 45.568 9.216 37.376 25.088 25.6 37.376 9.216 45.568q0 24.064-9.216 45.568t-25.088 37.376-37.888 25.6-45.568 9.728q-24.064 0-45.568-9.216t-37.376-25.6-25.088-37.888-9.216-45.568z" horiz-adv-x="410" />
<glyph unicode="&#x50;" d="M46.592 419.072q0 4.096 2.56 6.656t7.168 3.072h120.32q23.552 0 44.544-8.704t36.352-24.576 24.576-35.84 9.216-44.032-8.704-44.544-24.576-36.864-36.352-24.576-44.544-9.216h-64v-120.32q0-4.096-2.56-6.656t-7.168-3.072h-47.104q-4.096 0-6.656 2.56t-3.072 7.168v338.944zM172.544 262.912q10.752 0 19.968 4.096t16.896 11.264 11.776 16.896 4.096 20.992q0 10.752-4.096 19.456t-11.264 15.872-16.896 10.24-20.48 4.096h-59.392v-102.912h59.392z" horiz-adv-x="303" />
<glyph unicode="&#x51;" d="M20.992 249.088q0 38.4 14.336 72.192t38.912 58.368 58.368 39.424 72.192 14.848 71.68-14.336 58.88-39.424 39.424-58.88 14.336-72.192q0-26.112-7.168-50.176t-20.48-45.568-31.744-38.4-40.448-29.696l64-100.864q3.584-5.632 1.024-10.24t-9.216-5.12h-54.272q-1.536 0-4.096 1.024t-4.096 4.096l-54.784 92.672q-6.144-1.024-12.288-1.024t-10.752-0.512q-38.4 0-71.68 14.336t-58.368 38.912-39.424 58.368-14.336 72.192zM87.552 249.088q0-24.064 9.216-45.568t25.088-37.376 37.376-25.088 45.568-9.216 45.568 9.216 37.376 25.088 25.6 37.376 9.216 45.568q0 24.064-9.216 45.568t-25.088 37.376-37.888 25.6-45.568 9.728q-24.064 0-45.568-9.216t-37.376-25.6-25.088-37.888-9.216-45.568z" horiz-adv-x="410" />
<glyph unicode="&#x52;" d="M46.592 419.072q0 4.096 2.56 6.656t7.168 3.072h146.432q23.040 0 43.008-8.704t35.84-23.552 24.064-34.816 8.704-43.008q0-17.92-5.632-33.28t-15.36-29.184-24.064-23.552-30.72-17.408l70.144-130.048q2.56-5.12 0.512-9.728t-9.216-5.12h-53.76q-3.584 0-5.12 1.536l-3.072 3.072-68.096 135.68h-56.832v-130.56q0-4.096-2.56-6.656t-7.168-3.072h-47.104q-4.096 0-6.656 2.56t-3.072 7.168v338.944zM197.12 265.472q10.24 0 19.456 4.096t15.872 11.264 11.264 16.384 4.096 20.48q0 10.24-4.096 18.944t-10.752 15.872-16.384 10.752-19.456 4.096h-83.456v-101.888h83.456z" horiz-adv-x="341" />
<glyph unicode="&#x53;" d="M28.16 105.216q-3.584 3.584-4.608 6.144t2.048 9.216l18.432 31.744q3.072 5.632 8.192 5.632t9.216-2.048q1.024-0.512 8.192-5.632t18.944-10.752 24.576-10.24 25.6-5.12q19.968 0 33.28 11.264t13.312 28.16q0 19.456-16.384 33.792t-48.64 27.648q-17.92 7.168-35.328 16.896t-30.72 23.040-22.016 30.72-8.192 39.936q0 16.896 6.656 34.304t20.48 31.744 35.328 23.040 52.736 9.216q19.456 0 36.352-4.096t30.72-10.24 22.016-11.264 13.312-8.704q4.096-2.56 4.608-7.68t-1.536-9.216l-19.456-29.184q-3.072-4.608-8.192-6.656t-9.728 0.512q-1.536 1.024-8.704 5.632t-17.92 9.216-22.016 9.216-22.528 4.096q-22.016 0-33.28-11.776t-11.776-24.064q0-17.92 14.336-31.232t46.080-26.112q18.432-7.68 37.376-17.408t34.816-23.040 25.088-32.256 9.728-43.008q0-19.968-8.192-37.888t-23.552-32.256-36.864-22.528-49.152-8.704q-24.064 0-43.008 4.608t-33.28 11.776-23.552 13.312-12.8 10.24z" horiz-adv-x="278" />
<glyph unicode="&#x54;" d="M94.72 367.36h-78.336q-4.096 0-6.656 2.56t-3.072 7.168v41.984q0 4.096 2.56 6.656t7.168 3.072h223.744q4.096 0 6.656-2.56t3.072-7.168v-41.984q0-4.096-2.56-6.656t-7.168-3.072h-78.336v-287.232q0-4.096-2.56-6.656t-7.168-3.072h-47.616q-4.096 0-6.656 2.56t-3.072 7.168v287.232z" horiz-adv-x="257" />
<glyph unicode="&#x55;" d="M41.472 419.072q0 4.096 2.56 6.656t7.168 3.072h48.64q4.096 0 6.656-2.56t3.072-7.168v-209.408q0-16.384 5.12-30.208t15.36-24.576 23.040-16.896 30.72-6.144q16.896 0 30.208 6.144t23.552 16.384 15.36 24.064 5.632 30.72v209.92q0 4.096 2.56 6.656t7.168 3.072h48.64q4.096 0 6.656-2.56t3.072-7.168v-212.992q0-29.184-10.752-54.784t-30.208-44.544-45.568-30.208-56.32-11.264-55.808 10.752-45.056 30.208-30.208 45.056-11.264 54.784v212.992z" horiz-adv-x="368" />
<glyph unicode="&#x56;" d="M0 415.488q-2.56 5.12 0 9.216t8.704 4.096h52.224q3.584 0 5.632-1.536t3.072-4.096l98.304-220.16h3.584l98.304 220.16q1.024 2.048 3.072 3.584t5.632 2.048h52.224q5.632 0 8.192-4.096t0.512-9.216l-158.72-344.576q-3.072-5.632-8.704-5.632h-5.12q-6.144 0-8.704 5.632z" />
<glyph unicode="&#x57;" d="M14.848 416.512q-1.536 5.632 1.024 8.704t8.192 3.584h47.104q3.072 0 5.632-2.048t3.584-5.12l53.248-204.288h2.048l81.408 210.944q2.048 5.632 8.704 5.632h9.216q6.656 0 8.704-5.632l81.92-210.944h2.048l52.224 204.288q1.024 2.56 3.584 4.608t5.632 2.56h47.104q5.632 0 8.192-3.072t1.024-9.216l-96.768-344.064q-2.048-7.168-9.216-7.168h-8.192q-6.656 0-8.704 5.632l-91.648 231.936h-2.56l-90.624-231.936q-1.024-2.56-2.56-4.096t-6.144-1.536h-8.192q-3.072 0-5.632 2.048t-3.584 5.12z" horiz-adv-x="461" />
<glyph unicode="&#x58;" d="M121.856 254.208l-102.4 160.256q-3.072 5.12-0.512 9.728t9.216 4.608h59.392q3.072 0 5.12-1.536t3.072-3.072l65.536-108.544h0.512l66.56 108.544q1.024 1.536 3.072 3.072t5.12 1.536h59.392q6.656 0 9.216-4.608t-0.512-9.728l-102.912-160.256 106.496-169.472q3.072-5.632 0.512-9.728t-9.216-4.608h-55.296q-3.072 0-5.12 1.536t-3.584 3.072l-73.216 117.248h-1.536l-72.192-117.248q-1.024-1.536-3.072-3.072t-5.632-1.536h-55.296q-7.168 0-9.728 4.608t0.512 9.728z" horiz-adv-x="324" />
<glyph unicode="&#x59;" d="M115.2 242.944l-116.736 171.008q-3.072 5.12-0.512 9.728t8.704 5.12h52.224q3.072 0 5.12-1.536t3.072-3.072l81.92-117.76 81.92 117.76q1.024 1.536 3.072 3.072t5.12 1.536h52.736q6.144 0 8.704-4.608t-0.512-10.24l-118.272-170.496v-163.328q0-4.096-2.56-6.656t-7.168-3.072h-47.104q-4.096 0-6.656 2.56t-3.072 7.168v162.816z" horiz-adv-x="299" />
<glyph unicode="&#x5a;" d="M12.8 89.344l152.576 275.456v2.048h-128q-4.096 0-6.656 2.56t-3.072 7.168v42.496q0 4.096 2.56 6.656t7.168 3.072h214.016q4.096 0 6.656-2.56t3.072-7.168v-6.656l-150.528-279.040v-1.024h130.56q4.096 0 6.656-2.56t3.072-7.168v-42.496q0-4.096-2.56-6.656t-7.168-3.072h-218.624q-4.096 0-6.656 2.56t-3.072 7.168v9.216z" horiz-adv-x="276" />
<glyph unicode="&#x61;" d="M15.872 135.424q0 27.648 20.992 46.080t60.928 18.432q7.68 0 14.336-1.024t11.776-2.048q5.632-1.536 11.264-2.56 0.512 19.456-5.632 27.136t-20.992 8.192q-7.168 0-15.36-0.512t-15.872-2.048-14.848-2.048-11.264-3.072q-5.632-1.536-8.192 1.024t-3.584 8.192l-4.608 26.624q-1.024 5.632 1.024 8.704t6.144 4.096q1.536 0.512 7.68 2.048t16.384 3.072 21.504 3.072 24.064 1.536q24.064 0 39.424-6.144t24.064-17.408 11.776-28.16 3.584-37.376v-111.104q0-4.096-2.56-6.656t-7.168-3.072h-18.432q-2.56 0-4.608 1.536t-4.096 5.632l-6.144 13.824q-8.704-8.192-23.552-16.896t-38.912-9.216q-30.72 0-49.664 18.432t-19.456 51.712zM72.192 135.424q0-11.776 7.168-18.944t19.456-7.68q6.144 0 11.776 2.048t10.752 5.632 8.192 6.144 4.608 6.144v28.16q-4.096 1.536-8.704 3.072-4.096 1.024-9.216 2.048t-10.752 1.024q-14.848 0-24.064-7.68t-9.216-19.968z" horiz-adv-x="219" />
<glyph unicode="&#x62;" d="M30.72 419.072q0 4.096 2.56 6.656t7.168 3.072h43.52q4.096 0 6.656-2.56t3.072-7.168v-147.968q7.168 2.56 18.432 5.632t27.136 3.584q23.040 0 41.472-8.192t32.256-23.040 20.48-34.304 7.168-41.984q0-22.016-7.168-41.472t-20.992-34.304-31.232-23.040-38.912-8.704q-16.384 0-28.672 4.608t-20.992 10.752q-9.728 6.656-17.408 15.36l-5.12-15.872q-2.56-9.728-9.728-9.728h-19.968q-4.096 0-6.656 2.56t-3.072 7.168v338.944zM91.648 153.856q1.536-4.608 4.608-10.24t8.192-10.752 12.288-8.704 17.92-3.584q20.48 0 33.28 15.36t13.312 36.864q0 21.504-13.824 36.864t-35.84 15.36q-9.728 0-16.896-1.536t-12.8-4.608q-5.632-2.56-10.24-5.632v-59.392z" horiz-adv-x="256" />
<glyph unicode="&#x63;" d="M14.848 172.8q0 22.528 8.704 41.984t24.064 34.304 34.816 23.040 41.472 8.192q24.064 0 42.496-9.216t33.28-27.136q2.56-3.584 2.048-7.68t-4.608-6.656l-23.552-22.528q-3.584-3.072-6.656-2.048t-6.144 3.584q-6.144 7.168-15.36 11.776t-19.968 4.608q-10.24 0-19.456-4.096t-15.872-11.264-10.752-16.384-4.096-20.48q0-22.016 14.336-36.864t35.328-15.36q16.384 0 25.088 6.144t15.872 13.312q6.144 6.144 12.8 1.536l22.016-18.944q8.704-7.168 3.584-14.336-13.312-20.48-33.28-31.744t-47.616-11.264q-21.504 0-40.96 8.192t-34.816 22.528-24.064 33.792-8.704 43.008z" horiz-adv-x="218" />
<glyph unicode="&#x64;" d="M15.36 172.8q0 22.528 7.168 41.984t20.48 33.792 31.744 23.040 41.984 8.704q15.36 0 26.624-3.072t18.944-6.144v147.968q0 4.096 2.56 6.656t7.168 3.072h43.52q4.096 0 6.656-2.56t3.072-7.168v-338.944q0-4.096-2.56-6.656t-7.168-3.072h-19.968q-7.168 0-9.728 9.728l-5.12 15.872q-7.68-8.704-17.408-15.36-8.704-5.632-20.992-10.24t-28.672-5.12q-20.992 0-38.912 8.192t-31.232 23.040-20.48 34.304-7.68 41.984zM74.752 172.8q0-21.504 12.8-36.864t33.792-15.36q10.24 0 17.408 3.584t12.8 8.192 8.192 10.752 4.608 10.752v59.392q-4.608 3.072-10.24 5.632-5.12 2.56-12.288 4.096t-17.408 2.048q-21.504 0-35.328-15.36t-14.336-36.864z" horiz-adv-x="256" />
<glyph unicode="&#x65;" d="M15.36 172.8q0 21.504 7.68 40.96t21.504 34.304 32.768 23.552 42.496 8.704q19.968 0 37.376-7.168t30.208-19.456 20.48-30.208 7.68-38.4v-6.656t-1.024-7.168q-0.512-4.096-3.072-6.144t-6.656-2.56h-131.072q0.512-7.68 4.096-15.36t9.728-14.336 15.36-10.752 19.968-4.096q11.776 0 22.016 3.584t17.92 9.216q8.704 5.12 13.312 0l20.992-24.064q2.56-2.56 3.072-6.144t-3.584-7.168q-12.8-11.776-31.744-19.968t-44.544-8.192q-23.040 0-41.984 8.192t-33.28 23.040-22.016 34.304-7.68 41.984zM155.648 198.4q-1.024 14.336-11.776 24.576t-25.6 10.24q-15.36 0-26.624-9.728t-13.312-25.088h77.312z" horiz-adv-x="228" />
<glyph unicode="&#x66;" d="M43.008 221.44h-17.408q-4.096 0-6.656 2.56t-3.072 7.168v34.304q0 9.728 9.728 9.728h17.408v55.296q0 25.088 7.168 44.544t20.48 32.256 30.208 19.968 37.888 6.656q20.48 0 36.864-6.656t23.552-13.312q2.56-2.048 3.072-5.632t-1.024-6.144l-17.408-32.768q-1.536-3.072-5.12-3.584t-7.168 1.024q-5.12 3.072-13.312 6.656t-16.896 3.584q-16.384 0-25.088-11.776t-9.216-34.816v-55.296h51.2q9.728 0 9.728-9.728v-34.304q0-4.096-2.56-6.656t-7.168-3.072h-51.2v-141.312q0-4.096-2.56-6.656t-7.168-3.072h-44.544q-4.096 0-6.656 2.56t-3.072 7.168v141.312z" horiz-adv-x="176" />
<glyph unicode="&#x67;" d="M9.216 85.76q0 14.848 5.632 25.6t13.312 17.92q8.704 8.192 19.456 13.824-4.608 5.12-7.68 12.288-3.072 6.144-5.12 14.848t-2.56 20.992q0 17.92 6.656 33.792t18.944 28.672 28.16 19.456 35.328 7.168h93.184q9.728 0 9.728-9.728v-16.896q0-2.56-1.536-5.12t-4.096-3.584l-28.672-9.216q5.632-4.608 10.24-12.288 4.096-6.656 7.168-16.384t3.072-23.552q0-15.36-6.144-29.696t-17.408-25.6-27.648-17.92-36.352-7.168q-14.848 0-24.576 2.048t-16.384 2.048q-5.632 0-12.288-5.12t-6.656-14.336q0-8.192 5.632-12.8t14.848-4.608h65.536q17.408 0 32.768-4.608t26.624-14.336 18.432-22.528 6.656-30.208q0-17.92-7.168-33.28t-20.992-27.648-35.328-18.944-48.64-7.168q-28.672 0-48.128 6.144t-32.256 16.384-18.432 22.528-5.632 25.088q0 11.264 4.096 19.968t9.216 14.336 10.24 9.728 7.168 4.608v1.536q-3.072 1.024-9.216 4.096t-12.8 9.728-11.264 15.872-5.12 24.064zM87.040 188.672q0-16.384 10.24-26.624t25.6-10.24q15.872 0 25.6 10.24t9.728 26.624-9.728 26.624-25.6 10.24q-15.36 0-25.6-10.24t-10.24-26.624zM75.776-6.912q0-13.312 11.776-21.504t33.28-8.704q21.504 0 34.304 8.704t13.312 23.552q0 3.584-1.536 7.68t-5.632 8.192-11.776 6.656-18.432 2.56q-8.704 0-16.896-0.512t-16.384-1.536q-2.56-1.024-6.144-2.56t-7.168-4.608-6.144-7.168-2.56-10.752z" horiz-adv-x="237" />
<glyph unicode="&#x68;" d="M30.72 419.072q0 4.096 2.56 6.656t7.168 3.072h43.52q4.096 0 6.656-2.56t3.072-7.168v-155.648q7.68 5.632 22.016 11.264t32.256 5.632q24.576 0 41.472-8.704t28.672-22.528 16.384-32.768 5.12-37.888v-98.304q0-4.096-2.56-6.656t-7.168-3.072h-41.472q-4.096 0-6.656 2.56t-3.072 7.168v98.816q0 21.504-10.752 33.792t-29.696 12.288q-17.92 0-29.184-10.24t-15.36-26.112v-108.544q0-9.728-10.752-9.728h-42.496q-4.096 0-6.656 2.56t-3.072 7.168v338.944z" horiz-adv-x="266" />
<glyph unicode="&#x69;" d="M60.928 347.904q-14.848 0-24.576 10.24t-10.24 25.088q0 14.848 9.728 25.088t25.088 10.24q14.848 0 25.088-10.24t10.752-25.088q0-14.848-10.24-25.088t-25.6-10.24zM30.72 265.472q0 4.096 2.56 6.656t7.168 3.072h42.496q4.096 0 6.656-2.56t3.072-7.168v-185.344q0-4.096-2.56-6.656t-7.168-3.072h-42.496q-4.096 0-6.656 2.56t-3.072 7.168v185.344z" horiz-adv-x="124" />
<glyph unicode="&#x6a;" d="M61.44 347.904q-14.848 0-24.576 10.24t-10.24 25.088q0 14.848 9.728 25.088t25.088 10.24q14.848 0 25.088-10.24t10.752-25.088q0-14.848-10.24-25.088t-25.6-10.24zM30.72 265.472q0 4.096 2.56 6.656t7.168 3.072h43.008q4.096 0 6.656-2.56t3.072-7.168v-250.368q0-25.6-7.168-44.544t-19.968-32.256-30.208-19.968-37.888-6.656-36.864 6.656-23.552 13.312q-2.56 2.048-3.072 5.632t1.024 6.144l16.896 32.768q1.536 3.072 5.12 3.584t7.168-1.024q5.12-3.072 13.312-6.656t16.896-3.584q17.408 0 26.624 11.776t9.216 34.816v250.368z" horiz-adv-x="124" />
<glyph unicode="&#x6b;" d="M30.72 419.072q0 4.096 2.56 6.656t7.168 3.072h43.52q4.096 0 6.656-2.56t3.072-7.168v-221.696l70.656 71.68q2.56 2.56 5.632 4.096t7.168 2.048h46.592q6.656 0 8.704-5.12t-2.048-9.728l-76.288-77.824 91.136-97.792q4.096-4.096 2.048-9.216t-8.704-5.12h-55.296q-5.632 0-8.704 4.096l-80.896 92.16v-86.528q0-4.096-2.56-6.656t-7.168-3.072h-43.52q-4.096 0-6.656 2.56t-3.072 7.168v338.944z" horiz-adv-x="251" />
<glyph unicode="&#x6c;" d="M30.72 419.072q0 4.096 2.56 6.656t7.168 3.072h43.008q4.096 0 6.656-2.56t3.072-7.168v-338.944q0-4.096-2.56-6.656t-7.168-3.072h-43.008q-4.096 0-6.656 2.56t-3.072 7.168v338.944z" horiz-adv-x="124" />
<glyph unicode="&#x6d;" d="M30.72 265.472q0 4.096 2.56 6.656t7.168 3.072h18.944q6.656 0 8.704-5.632l7.168-19.456q3.072 3.584 9.216 8.704t14.848 9.728 19.456 8.192 25.088 3.584q22.016 0 37.888-8.192t28.672-23.552q3.072 3.584 9.728 8.704t15.872 10.752 20.992 8.704 25.6 3.584q24.576 0 41.472-8.192t27.648-22.528 15.36-32.768 5.12-38.912v-97.792q0-4.096-2.56-6.656t-7.168-3.072h-41.472q-4.096 0-6.656 2.56t-3.072 7.168v101.376q0 19.968-9.216 31.744t-29.184 11.776q-11.264 0-18.944-3.072t-13.824-7.68q-6.144-5.12-10.24-10.752v-12.288t0.512-7.168v-103.936q0-4.096-2.56-6.656t-7.168-3.072h-38.4q-4.096 0-6.656 2.56t-3.072 7.168v101.376q0 19.968-9.216 31.744t-28.672 11.776q-9.728 0-16.896-3.072t-12.288-7.68-8.192-10.752-5.632-10.752v-112.64q0-4.096-2.56-6.656t-7.168-3.072h-41.472q-4.096 0-6.656 2.56t-3.072 7.168v185.344z" horiz-adv-x="399" />
<glyph unicode="&#x6e;" d="M30.72 265.472q0 4.096 2.56 6.656t7.168 3.072h19.456q6.144 0 8.704-6.144l7.168-18.944q3.072 3.072 8.704 8.192t15.36 9.728 20.992 8.704 27.136 3.584q24.576 0 41.472-8.192t28.16-22.528 16.384-32.768 5.12-38.4v-98.304q0-4.096-2.56-6.656t-7.168-3.072h-41.984q-4.096 0-6.656 2.56t-3.072 7.168v101.376q0 19.968-9.728 31.744t-28.672 11.776q-10.24 0-17.92-3.072t-14.336-7.68-9.728-10.752-6.144-10.752v-112.64q0-5.632-2.56-7.68t-10.24-2.048h-37.888q-4.096 0-6.656 2.56t-3.072 7.168v185.344z" horiz-adv-x="266" />
<glyph unicode="&#x6f;" d="M14.848 173.312q0 21.504 8.192 40.96t22.528 33.792 33.28 23.552 40.96 8.704q21.504 0 40.448-8.704t33.792-23.040 22.528-34.304 8.192-40.96q0-22.016-8.192-41.472t-22.528-34.304-33.28-23.552-40.96-8.704q-21.504 0-40.448 8.704t-33.792 23.040-22.528 34.304-8.192 41.984zM70.656 173.312q0-22.016 13.824-37.376t35.328-15.36q10.24 0 18.944 4.096t15.872 11.264 10.24 16.896 4.096 20.48q0 10.752-3.584 19.968t-10.752 16.384-15.36 11.264-19.456 4.096q-10.24 0-18.944-4.096t-15.872-10.752-10.24-16.384-4.096-20.48z" horiz-adv-x="240" />
<glyph unicode="&#x70;" d="M93.696-73.472q0-4.608-2.56-7.168t-9.728-2.56h-40.96q-4.096 0-6.656 2.56t-3.072 7.168v338.944q0 4.096 2.56 6.656t7.168 3.072h19.968q6.144 0 8.704-6.144l6.656-16.896q3.072 3.584 8.704 8.704t14.336 9.216 19.456 7.168 23.552 3.072q20.992 0 38.912-8.192t31.744-23.040 20.48-34.304 7.68-41.984q0-22.528-8.192-41.984t-22.016-34.304-32.256-23.040-38.912-8.192q-14.848 0-27.136 4.096t-18.432 7.168v-150.016zM91.136 132.352q4.608-3.584 10.24-6.144 5.12-2.56 12.288-4.096t17.408-1.536q21.504 0 35.328 15.36t14.336 36.864q0 21.504-12.8 36.864t-34.816 15.36q-9.728 0-16.896-3.072t-12.8-8.192-8.192-10.24-4.096-9.728v-61.44z" horiz-adv-x="256" />
<glyph unicode="&#x71;" d="M15.36 172.8q0 22.016 7.168 41.472t20.992 34.304 31.232 23.040 39.424 8.704q12.288 0 23.040-3.072t19.456-7.168 14.336-9.216 9.216-8.704l6.656 16.896q2.048 6.144 8.704 6.144h19.968q4.096 0 6.656-2.56t3.072-7.168v-338.944q0-4.096-2.56-6.656t-7.168-3.072h-40.96q-7.168 0-9.728 2.56t-2.56 7.168v150.016q-5.632-3.072-17.92-7.168t-27.648-4.096q-20.992 0-39.424 8.192t-32.256 22.528-21.504 34.304-8.192 42.496zM75.264 171.776q0-21.504 13.824-36.352t35.84-14.848q9.728 0 16.896 1.536t12.8 4.096 10.24 6.144v61.44q-1.024 4.096-4.096 9.216t-8.192 10.24-12.288 8.192-17.408 3.584q-10.752 0-19.456-4.096t-14.848-11.776-9.728-16.896-3.584-20.48z" horiz-adv-x="256" />
<glyph unicode="&#x72;" d="M30.72 265.472q0 4.096 2.56 6.656t7.168 3.072h19.456q6.656 0 9.216-6.656l7.168-19.968q2.56 3.584 7.168 9.216t12.288 10.24 16.896 8.704 21.504 3.584q9.216 0 16.896-1.024t13.824-4.096 8.192-6.656 0.512-8.704l-18.944-33.28q-2.048-3.584-5.12-4.608t-6.656 0q-1.024 0.512-5.632 1.536t-9.216 1.536q-15.36 0-24.576-7.68t-11.776-13.312v-123.904q0-9.728-11.776-9.728h-39.424q-4.096 0-6.656 2.56t-3.072 7.168v185.344z" horiz-adv-x="175" />
<glyph unicode="&#x73;" d="M22.528 84.224q-2.56 2.048-3.584 4.608t0.512 6.144l13.824 27.648q1.536 4.096 4.608 4.608t7.168-1.024q6.656-3.584 14.336-6.144 6.656-2.56 14.848-4.096t17.408-2.048q7.68 0 12.288 3.072t5.12 9.728q0 7.168-6.656 12.288t-27.648 13.312q-29.696 11.776-43.52 27.648t-14.336 39.936q0 11.776 4.096 22.528t13.824 18.944 23.552 13.824 33.792 5.12q23.040 0 38.912-5.12t24.064-10.752q3.584-2.56 5.12-6.144t-0.512-7.68l-12.8-26.112q-2.048-3.584-5.632-4.096t-6.656 0.512q-6.656 3.072-13.824 5.12-6.144 2.048-13.824 3.584t-14.848 2.048q-9.216 0-13.312-3.072t-4.096-8.704q0-7.168 6.656-10.752t21.504-9.216 27.136-11.776 22.016-14.848 14.336-19.456 5.632-26.112q0-12.8-5.12-24.064t-15.872-19.456-25.6-13.824-34.816-5.12q-25.6 0-42.496 6.144t-25.6 12.8z" horiz-adv-x="187" />
<glyph unicode="&#x74;" d="M41.472 221.44h-17.408q-4.096 0-6.656 2.56t-2.56 7.168v34.304q0 4.096 2.56 6.656t6.656 3.072h17.408v56.832q0 4.096 2.56 6.656t7.168 3.072l41.984 0.512q4.096 0 6.656-2.56t2.56-7.168v-57.344h45.056q9.728 0 9.728-9.728v-34.304q0-4.096-2.56-6.656t-7.168-3.072h-45.056v-81.92q0-10.752 4.608-13.312t11.264-3.072q6.656 0 13.824 2.048t11.264 3.584q8.704 3.072 11.264-5.632l10.24-32.256q1.536-4.096 0-7.168t-5.632-5.12q-1.024-0.512-7.168-2.56t-14.848-4.608-18.944-4.096-19.968-2.048q-29.696 0-43.008 17.408t-13.824 48.64v90.112z" horiz-adv-x="177" />
<glyph unicode="&#x75;" d="M27.136 265.472q0 4.096 2.56 6.656t7.168 3.072h41.984q4.096 0 6.656-2.56t3.072-7.168v-100.864q0-20.48 9.728-32.256t27.648-11.776q16.384 0 27.136 12.288t13.824 26.112v106.496q0 5.632 2.56 7.68t8.704 2.048h38.912q4.096 0 6.656-2.56t3.072-7.168v-185.344q0-4.096-2.56-6.656t-7.168-3.072h-18.944q-4.096 0-6.144 2.048t-3.584 5.632l-6.144 16.896q-3.584-3.072-8.704-8.192t-13.824-9.728-19.456-8.192-26.624-3.584q-24.064 0-40.448 8.192t-26.624 22.528-14.848 32.256-4.608 37.888v99.328z" horiz-adv-x="258" />
<glyph unicode="&#x76;" d="M3.584 262.912q-2.56 5.12-0.512 8.704t7.68 3.584h44.544q4.096 0 6.144-1.536t3.072-4.096l41.472-95.232h1.024l44.032 95.232q2.048 4.096 5.12 4.608t7.168 1.024h39.936q5.632 0 7.68-3.584t-0.512-8.704l-93.696-192.512q-1.024-2.048-3.072-3.584t-5.632-1.536h-2.56q-3.584 0-5.632 1.536t-3.072 3.584z" horiz-adv-x="214" />
<glyph unicode="&#x77;" d="M9.216 263.424q-2.56 5.12 0 8.192t8.704 3.584h36.864q2.56 0 5.12-1.536t4.096-4.608l30.72-91.648h0.512l52.224 98.304q1.024 1.536 2.56 3.072t5.632 1.536h4.096q5.632 0 8.192-4.608l51.712-98.304h0.512l30.72 91.648q1.536 4.096 4.608 5.12t7.168 1.024h33.28q5.632 0 8.192-3.072t1.024-8.704l-64-192.512q-2.048-5.632-9.216-5.632h-2.048q-5.632 0-8.192 4.608l-64.512 119.296h-0.512l-64-119.296q-2.56-4.608-8.192-4.608h-2.56q-6.656 0-8.704 5.632z" horiz-adv-x="316" />
<glyph unicode="&#x78;" d="M18.432 70.4q-6.656 0-8.192 4.608t2.048 10.24l66.56 89.6-64.512 85.504q-4.096 5.12-1.536 9.728t9.216 5.12h42.496q5.12 0 9.216-1.024t7.68-6.144l33.28-48.128h0.512l33.792 48.128q3.072 4.096 6.144 5.632t9.216 1.536h46.080q6.656 0 8.192-4.608t-2.048-10.24l-64.512-84.992 65.024-90.112q3.584-5.12 2.048-9.728t-8.192-5.12h-45.056q-8.704 0-14.336 8.192l-36.352 51.2h-0.512l-38.912-55.296q-3.072-4.096-8.192-4.096h-49.152z" horiz-adv-x="231" />
<glyph unicode="&#x79;" d="M4.096 261.888q-2.56 5.12 0 9.216t8.704 4.096h46.080q5.632 0 8.704-5.632l51.712-115.712h0.512l51.2 115.712q2.048 4.096 4.608 4.608t7.68 1.024h40.96q6.144 0 8.704-4.096t0-9.216l-156.672-338.944q-1.024-2.56-3.072-4.096t-5.632-2.048h-44.032q-5.632 0-8.192 4.096t-0.512 9.728l72.704 154.112z" horiz-adv-x="237" />
<glyph unicode="&#x7a;" d="M15.36 85.248l72.704 134.144v1.024h-58.368q-4.096 0-6.656 2.56t-2.56 7.168v35.328q0 4.096 2.56 6.656t6.656 3.072h135.168q5.632 0 8.704-4.096t0-9.728l-74.24-135.168v-1.536h55.296q9.728 0 9.728-9.728v-34.816q0-4.096-2.56-6.656t-7.168-3.072h-129.536q-4.096 0-6.656 2.56t-3.072 7.168v5.12z" horiz-adv-x="188" />
<glyph unicode="&#xe600;" d="M32 480h480v-480z" />
<glyph unicode="&#xe601;" d="M16 448h480v-320h-160l-160-128v128h-160z" />
<glyph unicode="&#xe602;" d="M64 96l192 256 192-256z" />
<glyph unicode="&#xe603;" d="M16 384h320l160-160-160-160h-320z" />
<glyph unicode="&#xe604;" d="M432 224c0-97.202-78.798-176-176-176s-176 78.798-176 176c0 97.202 78.798 176 176 176 97.202 0 176-78.798 176-176z" />
<glyph unicode="&#xe605;" d="M192-6.4c-4.928 0-9.92 0.96-14.656 2.944-14.4 5.92-23.744 19.936-23.744 35.456v89.6h-89.6c-21.216 0-38.4 17.184-38.4 38.4v256c0 21.216 17.216 38.4 38.4 38.4h384c21.216 0 38.4-17.216 38.4-38.4v-256c0-21.216-17.184-38.4-38.4-38.4h-112.096l-116.736-116.736c-7.36-7.36-17.184-11.264-27.168-11.264zM102.4 198.4h89.6c21.216 0 38.4-17.184 38.4-38.4v-35.296l62.432 62.432c7.232 7.2 16.992 11.264 27.168 11.264h89.6v179.2h-307.2v-179.2z" />
<glyph unicode="&#xe606;" d="M183.392 36.096c-0.256 0-0.48 0-0.736 0-13.664 0.192-26.656 5.92-36.032 15.872l-129.536 137.376c-19.136 20.288-18.208 52.256 2.080 71.424 20.352 19.136 52.352 18.176 71.456-2.080l93.856-99.52 237.92 237.952c19.744 19.744 51.712 19.744 71.456 0 19.744-19.712 19.744-51.712 0-71.456l-274.72-274.784c-9.472-9.472-22.336-14.784-35.744-14.784z" />
<glyph unicode="&#xe607;" d="M389.792 291.392l87.584 175.2h-442.752v-444.768c0-22.336 18.112-40.448 40.448-40.448s40.448 18.080 40.448 40.448v94.336h361.888l-87.616 175.232zM346.56 197.056h-231.072v188.672h231.072l-47.168-94.336 47.168-94.336z" />
<glyph unicode="&#xe608;" d="M256 466.592c-133.76 0-242.56-108.832-242.56-242.592s108.8-242.592 242.56-242.592c133.728 0 242.56 108.832 242.56 242.592s-108.832 242.592-242.56 242.592zM417.696 224c0-29.888-8.704-57.568-22.912-81.6l-220.416 220.384c24.032 14.208 51.712 22.944 81.632 22.944 89.152 0 161.696-72.544 161.696-161.728zM94.304 224c0 29.888 8.704 57.568 22.88 81.6l220.448-220.416c-24.064-14.176-51.744-22.912-81.632-22.912-89.184 0-161.696 72.544-161.696 161.728z" />
<glyph unicode="&#xe609;" d="M177.76-26.944h-172.704v172.736l329.184 329.152 172.704-172.704-329.184-329.184zM85.92 53.92h58.336l248.32 248.32-58.336 58.336-248.32-248.32v-58.336z" />
<glyph unicode="&#xe60a;" d="M327.456 219.808l107.2 107.168c19.744 19.712 19.744 51.712 0 71.456s-51.712 19.744-71.456 0l-107.2-107.168-107.2 107.168c-19.744 19.744-51.744 19.744-71.456 0-19.744-19.712-19.744-51.712 0-71.456l107.2-107.168-107.2-107.168c-19.744-19.744-19.744-51.712 0-71.456 9.856-9.856 22.816-14.816 35.744-14.816s25.856 4.928 35.744 14.816l107.168 107.168 107.2-107.168c9.856-9.856 22.816-14.816 35.744-14.816s25.856 4.928 35.744 14.816c19.744 19.744 19.744 51.712 0 71.456l-107.232 107.168z" />
<glyph unicode="&#xe60b;" d="M256 344.896l241.504-241.792h-483.008z" />
<glyph unicode="&#xe60c;" d="M14.496 344.896h483.008l-241.504-241.792z" />
<glyph unicode="&#xe60d;" d="M287.935-32h-95.935v256h-64v88.225l64 0.029-0.104 51.976c0 71.976 19.517 115.77 104.299 115.77h70.588v-88.242h-44.115c-33.016 0-34.603-12.328-34.603-35.342l-0.131-44.162h79.345l-9.352-88.225-69.927-0.029-0.065-256z" />
<glyph unicode="&#xe60e;" d="M65.728 480h380.576c36.128 0 65.696-29.568 65.696-65.728v-380.576c0-36.128-29.568-65.696-65.728-65.696h-380.544c-36.16 0-65.728 29.568-65.728 65.728v380.544c0 36.16 29.568 65.728 65.728 65.728v0zM372.96 423.104c-12.672 0-23.040-10.368-23.040-23.040v-55.168c0-12.672 10.368-23.040 23.040-23.040h57.856c12.672 0 23.040 10.368 23.040 23.040v55.168c0 12.672-10.368 23.040-23.040 23.040h-57.856zM454.144 263.488h-45.056c4.256-13.92 6.56-28.672 6.56-43.936 0-85.152-71.264-154.208-159.136-154.208s-159.168 69.056-159.168 154.208c0 15.264 2.304 30.016 6.56 43.936h-47.008v-216.288c0-11.2 9.152-20.352 20.352-20.352h356.544c11.2 0 20.352 9.152 20.352 20.352v216.288zM256.48 324.736c-56.8 0-102.816-44.608-102.816-99.648s46.048-99.648 102.816-99.648 102.816 44.608 102.816 99.648c0.032 55.040-46.016 99.648-102.816 99.648z" />
<glyph unicode="&#xe60f;" d="M512 382.791c-18.838-8.354-39.082-14.001-60.33-16.54 21.686 13 38.343 33.585 46.186 58.115-20.298-12.039-42.778-20.78-66.705-25.49-19.16 20.415-46.461 33.17-76.673 33.17-58.011 0-105.044-47.029-105.044-105.039 0-8.233 0.929-16.25 2.72-23.939-87.3 4.382-164.701 46.2-216.509 109.753-9.042-15.514-14.223-33.558-14.223-52.809 0-36.444 18.544-68.596 46.73-87.433-17.219 0.546-33.416 5.271-47.577 13.139-0.010-0.438-0.010-0.878-0.010-1.321 0-50.894 36.209-93.348 84.261-103-8.813-2.4-18.094-3.686-27.674-3.686-6.769 0-13.349 0.66-19.764 1.886 13.368-41.73 52.16-72.103 98.126-72.948-35.95-28.175-81.243-44.967-130.458-44.967-8.479 0-16.84 0.497-25.058 1.47 46.486-29.805 101.701-47.197 161.021-47.197 193.211 0 298.868 160.062 298.868 298.872 0 4.554-0.103 9.084-0.305 13.59 20.528 14.81 38.336 33.31 52.418 54.374z" />
<glyph unicode="&#xe610;" d="M68.147 104.535c-37.598 0-68.146-30.667-68.146-68.038 0-37.577 30.55-67.901 68.146-67.901 37.733 0 68.247 30.324 68.247 67.901-0.001 37.371-30.512 68.038-68.247 68.038zM0.078 306.035v-98.129c63.892 0 123.979-24.986 169.229-70.256 45.192-45.159 70.141-105.518 70.141-169.65h98.561c-0.001 186.41-151.641 338.035-337.931 338.035zM0.194 480v-98.178c227.891 0 413.378-185.667 413.378-413.822h98.428c0 282.235-229.627 512-511.806 512z" />
<glyph unicode="&#xe611;" d="M288.016 256l-0.001-117.092c0-29.709-0.385-46.828 2.765-55.25 3.125-8.377 10.959-17.073 19.495-22.101 11.342-6.794 24.271-10.188 38.854-10.188 25.927 0 41.239 3.424 66.871 20.27v-76.972c-21.85-10.276-40.933-16.297-58.662-20.461-17.75-4.121-36.93-6.203-57.532-6.203-23.414 0-37.228 2.943-55.205 8.828-17.979 5.934-33.33 14.403-46.010 25.27-12.725 10.961-21.511 22.604-26.424 34.916-4.913 12.318-7.358 30.207-7.358 53.622v179.55h-68.713v72.503c20.104 6.521 42.582 15.894 56.89 28.076 14.377 12.225 25.883 26.853 34.553 43.972 8.696 17.073 14.674 38.856 17.936 65.258h82.542l-0.001-127.998h127.984v-96h-127.984z" />
<glyph unicode="&#xe612;" d="M307.2 249.6c0-14.138-11.462-25.6-25.6-25.6s-25.6 11.462-25.6 25.6c0 14.138 11.461 25.6 25.6 25.6 14.139 0 25.6-11.462 25.6-25.6zM344.064 35.584v112.64l-91.456-49.152-187.104 81.92v-145.408h0.032zM481.28 480h-348.16c-16.96 0-30.72-13.76-30.72-30.72v-71.68h-71.68c-16.96 0-30.72-13.76-30.72-30.72v-348.16c0-16.96 13.76-30.72 30.72-30.72h348.16c16.96 0 30.72 13.76 30.72 30.72v71.68h71.68c16.96 0 30.72 13.76 30.72 30.72v348.16c0 16.96-13.76 30.72-30.72 30.72zM368.64 8.96h-327.68v327.68h327.68v-327.68zM471.040 111.36h-61.44v235.52c0 16.96-13.76 30.72-30.72 30.72h-235.52v61.44h327.68v-327.68z" />
<glyph unicode="&#xe613;" d="M511.072 219.328c1.216 2.976 1.216 6.336 0 9.312-0.608 1.504-1.504 2.848-2.656 3.968l-243.776 243.84c-4.768 4.768-12.48 4.768-17.248 0s-4.768-12.48 0-17.248l223.008-223.008h-458.208c-6.72 0-12.192-5.472-12.192-12.192s5.472-12.192 12.192-12.192h458.208l-223.008-223.008c-4.768-4.768-4.768-12.48 0-17.248 2.368-2.368 5.504-3.552 8.608-3.552 3.136 0 6.24 1.184 8.608 3.584l243.808 243.808c1.152 1.12 2.048 2.464 2.656 3.936z" />
<glyph unicode="&#xe614;" d="M256 480c-141.152 0-256-114.848-256-256s114.848-256 256-256c141.152 0 256 114.848 256 256 0 141.152-114.848 256-256 256zM256 3.936c-121.344 0-220.064 98.72-220.064 220.064 0 121.344 98.72 220.064 220.064 220.064 121.376 0 220.064-98.72 220.064-220.064 0-121.376-98.688-220.064-220.064-220.064zM256 353.056c-71.168 0-129.056-57.888-129.056-129.056 0-71.136 57.888-129.056 129.056-129.056 71.136 0 129.056 57.888 129.056 129.056 0 71.168-57.92 129.056-129.056 129.056zM256 130.88c-51.36 0-93.12 41.76-93.12 93.12s41.792 93.12 93.12 93.12c51.36 0 93.12-41.792 93.12-93.12 0-51.36-41.76-93.12-93.12-93.12zM256 286.144c-34.272 0-62.144-27.872-62.144-62.144s27.872-62.144 62.144-62.144 62.144 27.872 62.144 62.144-27.872 62.144-62.144 62.144zM256 197.792c-14.464 0-26.208 11.744-26.208 26.208s11.744 26.208 26.208 26.208 26.208-11.744 26.208-26.208-11.744-26.208-26.208-26.208z" />
<glyph unicode="&#xe615;" d="M378.017 348.255l38.524 71.452-37.159 20.040-35.466-65.8c-25.883 14.99-55.862 23.699-87.915 23.699-97.171 0-175.94-78.769-175.94-175.94s78.769-175.913 175.94-175.913 175.94 78.769 175.94 175.94c0 49.719-20.723 94.55-53.923 126.522zM256 88.005c-73.718 0-133.702 59.984-133.702 133.702s59.984 133.702 133.702 133.702c24.791 0 47.917-6.908 67.848-18.702l-73.472-136.269-58.155 49.118-27.248-32.245 97.881-82.673 94.086 174.492c20.368-23.481 32.764-54.005 32.764-87.424 0-73.718-59.984-133.702-133.702-133.702z" />
<glyph unicode="&#xe616;" d="M256 403.249c-100.305 0-181.615-81.31-181.615-181.615s81.31-181.587 181.615-181.587 181.615 81.31 181.615 181.615-81.31 181.587-181.615 181.587zM256 83.618c-76.096 0-138.016 61.919-138.016 138.016s61.919 138.015 138.016 138.015 138.015-61.919 138.015-138.015-61.919-138.015-138.016-138.015zM263.272 316.076c-8.032 0-14.514-6.51-14.514-14.514v-72.629h-58.143c-8.032 0-14.514-6.51-14.514-14.514 0-8.033 6.51-14.514 14.514-14.514h87.172v101.63c0 8.033-6.482 14.543-14.514 14.543z" />
<glyph unicode="&#xe617;" d="M36.576 68.576v219.424c6.080-6.848 12.672-13.152 19.712-18.848 51.040-39.232 91.616-71.424 121.728-96.576 9.728-8.192 17.632-14.56 23.712-19.136 6.080-4.576 14.336-9.184 24.704-13.856s20.128-7.008 29.28-7.008h0.576c9.152 0 18.912 2.336 29.28 7.008 10.368 4.672 18.624 9.28 24.704 13.856 6.080 4.576 13.984 10.944 23.712 19.136 30.080 25.152 70.656 57.344 121.728 96.576 7.040 5.728 13.632 12 19.712 18.848v-219.424c0-2.464-0.896-4.608-2.72-6.432-1.792-1.792-3.968-2.72-6.432-2.72h-420.544c-2.464 0-4.608 0.896-6.432 2.72-1.824 1.824-2.72 3.968-2.72 6.432zM36.576 368.864v6.976c0 0 0.032 1.248 0.128 3.712 0.096 2.496 0.384 3.68 0.864 3.584 0.48-0.096 0.992 0.768 1.568 2.56s1.44 2.528 2.56 2.144c1.152-0.384 2.464-0.128 4 0.704h420.576c2.464 0 4.608-0.896 6.432-2.72 1.792-1.792 2.72-3.968 2.72-6.432 0-32-13.984-59.040-41.984-81.152-36.768-28.96-74.944-59.136-114.56-90.56-1.152-0.96-4.48-3.776-9.984-8.416-5.568-4.64-9.952-8.224-13.184-10.688-3.232-2.464-7.456-5.472-12.704-8.992-5.248-3.52-10.048-6.144-14.432-7.872-4.384-1.728-8.48-2.56-12.288-2.56h-0.576c-3.808 0-7.904 0.864-12.288 2.56-4.384 1.728-9.184 4.32-14.432 7.872-5.248 3.52-9.472 6.528-12.704 8.992s-7.616 6.048-13.152 10.72c-5.504 4.672-8.864 7.456-9.984 8.416-39.616 31.424-77.824 61.632-114.56 90.56-10.272 8.192-19.84 19.2-28.704 32.992s-13.312 26.368-13.312 37.6zM0 379.424v-310.848c0-12.576 4.48-23.328 13.44-32.288 8.96-8.96 19.712-13.44 32.288-13.44h420.576c12.576 0 23.328 4.48 32.288 13.44 8.96 8.96 13.44 19.712 13.44 32.288v310.848c0 12.576-4.48 23.328-13.44 32.288s-19.712 13.44-32.288 13.44h-420.576c-12.576 0-23.328-4.48-32.288-13.44s-13.44-19.712-13.44-32.288z" />
<glyph unicode="&#xe618;" d="M256 480c-88.366 0-160-71.634-160-160 0-160 160-352 160-352s160 192 160 352c0 88.366-71.635 160-160 160zM256 224c-53.020 0-96 42.98-96 96s42.98 96 96 96 96-42.98 96-96-42.98-96-96-96z" />
<glyph unicode="&#xe619;" d="M256 480c-141.385 0-256-114.615-256-256s114.615-256 256-256 256 114.615 256 256-114.615 256-256 256zM256 32c-106.039 0-192 85.961-192 192s85.961 192 192 192c106.039 0 192-85.961 192-192 0-106.039-85.961-192-192-192zM160 224c0 53.019 42.981 96 96 96s96-42.981 96-96c0-53.019-42.981-96-96-96-53.019 0-96 42.981-96 96z" />
<glyph unicode="&#xe61a;" d="M529.066 377.6h-477.863c-28.282 0-51.203 22.92-51.203 51.197s22.921 51.203 51.203 51.203h477.868c28.265 0 51.197-22.921 51.197-51.203s-22.932-51.197-51.203-51.197zM529.066 172.8h-477.863c-28.282 0-51.203 22.932-51.203 51.197 0 28.282 22.921 51.203 51.203 51.203h477.868c28.265 0 51.203-22.921 51.203-51.203-0.006-28.265-22.938-51.197-51.208-51.197zM529.066-32h-477.863c-28.282 0-51.203 22.932-51.203 51.197s22.921 51.203 51.203 51.203h477.868c28.265 0 51.203-22.932 51.203-51.203s-22.938-51.197-51.208-51.197z" horiz-adv-x="581" />
<glyph unicode="&#xe61b;" d="M307.712 224l193.56 193.585c14.287 14.287 14.287 37.449 0 51.712-14.287 14.287-37.425 14.287-51.712 0l-193.56-193.585-193.56 193.585c-14.287 14.287-37.425 14.287-51.712 0-14.287-14.263-14.287-37.425 0-51.712l193.56-193.585-193.56-193.585c-14.287-14.287-14.287-37.425 0-51.712 7.119-7.144 16.482-10.703 25.844-10.703s18.724 3.56 25.868 10.703l193.56 193.585 193.56-193.585c7.144-7.144 16.506-10.703 25.868-10.703s18.724 3.56 25.868 10.703c14.287 14.287 14.287 37.425 0 51.712l-193.585 193.585z" />
<glyph unicode="&#xe61c;" d="M457.861 425.846c-34.918 34.918-81.362 54.154-130.75 54.154s-95.821-19.236-130.739-54.154-54.149-81.346-54.139-130.719c-0.010-34.826 9.728-68.070 27.602-96.952l-157.338-157.338c-16.666-16.666-16.666-43.668 0-60.334 8.335-8.336 19.251-12.503 30.167-12.503s21.832 4.168 30.167 12.498l157.333 157.333c28.882-17.874 62.142-27.612 96.973-27.612 49.387 0 95.805 19.221 130.724 54.139 34.918 34.944 54.164 81.377 54.139 130.734 0.025 49.393-19.221 95.841-54.139 130.755zM397.527 224.707c-37.453-37.463-102.605-37.54-140.288-0.415-0.164 0.169-0.21 0.399-0.379 0.569-0.174 0.174-0.409 0.22-0.584 0.389-18.488 18.75-28.708 43.5-28.708 69.878 0 26.583 10.347 51.584 29.153 70.39 18.791 18.791 43.806 29.154 70.39 29.154 26.608 0 51.609-10.363 70.416-29.154 18.806-18.806 29.138-43.806 29.138-70.416 0-26.588-10.332-51.589-29.138-70.395z" />
<glyph unicode="" d="M457.861 425.846c-34.918 34.918-81.362 54.154-130.75 54.154s-95.821-19.236-130.739-54.154-54.149-81.346-54.139-130.719c-0.010-34.826 9.728-68.070 27.602-96.952l-157.338-157.338c-16.666-16.666-16.666-43.668 0-60.334 8.335-8.336 19.251-12.503 30.167-12.503s21.832 4.168 30.167 12.498l157.333 157.333c28.882-17.874 62.142-27.612 96.973-27.612 49.387 0 95.805 19.221 130.724 54.139 34.918 34.944 54.164 81.377 54.139 130.734 0.025 49.393-19.221 95.841-54.139 130.755zM397.527 224.707c-37.453-37.463-102.605-37.54-140.288-0.415-0.164 0.169-0.21 0.399-0.379 0.569-0.174 0.174-0.409 0.22-0.584 0.389-18.488 18.75-28.708 43.5-28.708 69.878 0 26.583 10.347 51.584 29.153 70.39 18.791 18.791 43.806 29.154 70.39 29.154 26.608 0 51.609-10.363 70.416-29.154 18.806-18.806 29.138-43.806 29.138-70.416 0-26.588-10.332-51.589-29.138-70.395z" />
<glyph unicode="Website" d="M256 480c-141.385 0-256-114.615-256-256s114.615-256 256-256 256 114.615 256 256-114.615 256-256 256zM256 32c-106.039 0-192 85.961-192 192s85.961 192 192 192c106.039 0 192-85.961 192-192 0-106.039-85.961-192-192-192zM160 224c0 53.019 42.981 96 96 96s96-42.981 96-96c0-53.019-42.981-96-96-96-53.019 0-96 42.981-96 96z" />
<glyph unicode="Twitter" d="M512 382.791c-18.838-8.354-39.082-14.001-60.33-16.54 21.686 13 38.343 33.585 46.186 58.115-20.298-12.039-42.778-20.78-66.705-25.49-19.16 20.415-46.461 33.17-76.673 33.17-58.011 0-105.044-47.029-105.044-105.039 0-8.233 0.929-16.25 2.72-23.939-87.3 4.382-164.701 46.2-216.509 109.753-9.042-15.514-14.223-33.558-14.223-52.809 0-36.444 18.544-68.596 46.73-87.433-17.219 0.546-33.416 5.271-47.577 13.139-0.010-0.438-0.010-0.878-0.010-1.321 0-50.894 36.209-93.348 84.261-103-8.813-2.4-18.094-3.686-27.674-3.686-6.769 0-13.349 0.66-19.764 1.886 13.368-41.73 52.16-72.103 98.126-72.948-35.95-28.175-81.243-44.967-130.458-44.967-8.479 0-16.84 0.497-25.058 1.47 46.486-29.805 101.701-47.197 161.021-47.197 193.211 0 298.868 160.062 298.868 298.872 0 4.554-0.103 9.084-0.305 13.59 20.528 14.81 38.336 33.31 52.418 54.374z" />
<glyph unicode="Tumblr" d="M288.016 256l-0.001-117.092c0-29.709-0.385-46.828 2.765-55.25 3.125-8.377 10.959-17.073 19.495-22.101 11.342-6.794 24.271-10.188 38.854-10.188 25.927 0 41.239 3.424 66.871 20.27v-76.972c-21.85-10.276-40.933-16.297-58.662-20.461-17.75-4.121-36.93-6.203-57.532-6.203-23.414 0-37.228 2.943-55.205 8.828-17.979 5.934-33.33 14.403-46.010 25.27-12.725 10.961-21.511 22.604-26.424 34.916-4.913 12.318-7.358 30.207-7.358 53.622v179.55h-68.713v72.503c20.104 6.521 42.582 15.894 56.89 28.076 14.377 12.225 25.883 26.853 34.553 43.972 8.696 17.073 14.674 38.856 17.936 65.258h82.542l-0.001-127.998h127.984v-96h-127.984z" />
<glyph unicode="Search" d="M457.861 425.846c-34.918 34.918-81.362 54.154-130.75 54.154s-95.821-19.236-130.739-54.154-54.149-81.346-54.139-130.719c-0.010-34.826 9.728-68.070 27.602-96.952l-157.338-157.338c-16.666-16.666-16.666-43.668 0-60.334 8.335-8.336 19.251-12.503 30.167-12.503s21.832 4.168 30.167 12.498l157.333 157.333c28.882-17.874 62.142-27.612 96.973-27.612 49.387 0 95.805 19.221 130.724 54.139 34.918 34.944 54.164 81.377 54.139 130.734 0.025 49.393-19.221 95.841-54.139 130.755zM397.527 224.707c-37.453-37.463-102.605-37.54-140.288-0.415-0.164 0.169-0.21 0.399-0.379 0.569-0.174 0.174-0.409 0.22-0.584 0.389-18.488 18.75-28.708 43.5-28.708 69.878 0 26.583 10.347 51.584 29.153 70.39 18.791 18.791 43.806 29.154 70.39 29.154 26.608 0 51.609-10.363 70.416-29.154 18.806-18.806 29.138-43.806 29.138-70.416 0-26.588-10.332-51.589-29.138-70.395z" />
<glyph unicode="RSS" d="M68.147 104.535c-37.598 0-68.146-30.667-68.146-68.038 0-37.577 30.55-67.901 68.146-67.901 37.733 0 68.247 30.324 68.247 67.901-0.001 37.371-30.512 68.038-68.247 68.038zM0.078 306.035v-98.129c63.892 0 123.979-24.986 169.229-70.256 45.192-45.159 70.141-105.518 70.141-169.65h98.561c-0.001 186.41-151.641 338.035-337.931 338.035zM0.194 480v-98.178c227.891 0 413.378-185.667 413.378-413.822h98.428c0 282.235-229.627 512-511.806 512z" />
<glyph unicode="Navigation" d="M529.066 377.6h-477.863c-28.282 0-51.203 22.92-51.203 51.197s22.921 51.203 51.203 51.203h477.868c28.265 0 51.197-22.921 51.197-51.203s-22.932-51.197-51.203-51.197zM529.066 172.8h-477.863c-28.282 0-51.203 22.932-51.203 51.197 0 28.282 22.921 51.203 51.203 51.203h477.868c28.265 0 51.203-22.921 51.203-51.203-0.006-28.265-22.938-51.197-51.208-51.197zM529.066-32h-477.863c-28.282 0-51.203 22.932-51.203 51.197s22.921 51.203 51.203 51.203h477.868c28.265 0 51.203-22.932 51.203-51.203s-22.938-51.197-51.208-51.197z" horiz-adv-x="581" />
<glyph unicode="Location" d="M256 480c-88.366 0-160-71.634-160-160 0-160 160-352 160-352s160 192 160 352c0 88.366-71.635 160-160 160zM256 224c-53.020 0-96 42.98-96 96s42.98 96 96 96 96-42.98 96-96-42.98-96-96-96z" />
<glyph unicode="Instagram" d="M65.728 480h380.576c36.128 0 65.696-29.568 65.696-65.728v-380.576c0-36.128-29.568-65.696-65.728-65.696h-380.544c-36.16 0-65.728 29.568-65.728 65.728v380.544c0 36.16 29.568 65.728 65.728 65.728v0zM372.96 423.104c-12.672 0-23.040-10.368-23.040-23.040v-55.168c0-12.672 10.368-23.040 23.040-23.040h57.856c12.672 0 23.040 10.368 23.040 23.040v55.168c0 12.672-10.368 23.040-23.040 23.040h-57.856zM454.144 263.488h-45.056c4.256-13.92 6.56-28.672 6.56-43.936 0-85.152-71.264-154.208-159.136-154.208s-159.168 69.056-159.168 154.208c0 15.264 2.304 30.016 6.56 43.936h-47.008v-216.288c0-11.2 9.152-20.352 20.352-20.352h356.544c11.2 0 20.352 9.152 20.352 20.352v216.288zM256.48 324.736c-56.8 0-102.816-44.608-102.816-99.648s46.048-99.648 102.816-99.648 102.816 44.608 102.816 99.648c0.032 55.040-46.016 99.648-102.816 99.648z" />
<glyph unicode="Facebook" d="M287.935-32h-95.935v256h-64v88.225l64 0.029-0.104 51.976c0 71.976 19.517 115.77 104.299 115.77h70.588v-88.242h-44.115c-33.016 0-34.603-12.328-34.603-35.342l-0.131-44.162h79.345l-9.352-88.225-69.927-0.029-0.065-256z" />
<glyph unicode="Close" d="M307.712 224l193.56 193.585c14.287 14.287 14.287 37.449 0 51.712-14.287 14.287-37.425 14.287-51.712 0l-193.56-193.585-193.56 193.585c-14.287 14.287-37.425 14.287-51.712 0-14.287-14.263-14.287-37.425 0-51.712l193.56-193.585-193.56-193.585c-14.287-14.287-14.287-37.425 0-51.712 7.119-7.144 16.482-10.703 25.844-10.703s18.724 3.56 25.868 10.703l193.56 193.585 193.56-193.585c7.144-7.144 16.506-10.703 25.868-10.703s18.724 3.56 25.868 10.703c14.287 14.287 14.287 37.425 0 51.712l-193.585 193.585z" />
</font>
</defs>
</svg>
